<svg id="Layer_1" height="512" viewBox="0 0 512 512" width="512" xmlns="http://www.w3.org/2000/svg" data-name="Layer 1"><path d="m164.97 135.333a6.728 6.728 0 1 0 6.5 6.724 6.623 6.623 0 0 0 -6.5-6.724z"/><path d="m165.47 310.384a6 6 0 0 0 -6 6v15.593a6 6 0 0 0 12 0v-15.593a6 6 0 0 0 -6-6z"/><path d="m165.47 159.4a6 6 0 0 0 -6 6v130.315a6 6 0 0 0 12 0v-130.315a6 6 0 0 0 -6-6z"/><path d="m313.976 139.791h-36.307v-42.307a6 6 0 0 0 -6-6h-31.338a6 6 0 0 0 -6 6v42.307h-36.307a6 6 0 0 0 -6 6v31.338a6 6 0 0 0 6 6h36.307v123.391a6 6 0 0 0 6 6h31.338a6 6 0 0 0 6-6v-123.391h36.307a6 6 0 0 0 6-6v-31.338a6 6 0 0 0 -6-6zm-6 31.338h-36.307a6 6 0 0 0 -6 6v123.391h-19.338v-123.391a6 6 0 0 0 -6-6h-36.307v-19.338h36.307a6 6 0 0 0 6-6v-42.307h19.338v42.307a6 6 0 0 0 6 6h36.307z"/><path d="m451 412.985h-24v-20a36.04 36.04 0 0 0 -36-36h-5.19v-211.16a129.81 129.81 0 0 0 -259.62 0v211.16h-5.19a36.04 36.04 0 0 0 -36 36v20h-24a6 6 0 0 0 -6 6v71a6 6 0 0 0 6 6h390a6 6 0 0 0 6-6v-71a6 6 0 0 0 -6-6zm-312.81-267.16a117.81 117.81 0 0 1 235.62 0v211.16h-235.62zm-41.19 247.16a24.027 24.027 0 0 1 24-24h270a24.027 24.027 0 0 1 24 24v20h-318zm348 91h-378v-59h378z"/><path d="m241 471.985a6 6 0 0 0 6-6v-19a6 6 0 0 0 -12 0v19a6 6 0 0 0 6 6z"/><path d="m211 471.985a6 6 0 0 0 6-6v-19a6 6 0 0 0 -12 0v19a6 6 0 0 0 6 6z"/><path d="m181 471.985a6 6 0 0 0 6-6v-19a6 6 0 0 0 -12 0v19a6 6 0 0 0 6 6z"/><path d="m151 471.985a6 6 0 0 0 6-6v-19a6 6 0 0 0 -12 0v19a6 6 0 0 0 6 6z"/><path d="m121 471.985a6 6 0 0 0 6-6v-19a6 6 0 0 0 -12 0v19a6 6 0 0 0 6 6z"/><path d="m91 471.985a6 6 0 0 0 6-6v-19a6 6 0 0 0 -12 0v19a6 6 0 0 0 6 6z"/><path d="m301 471.985a6 6 0 0 0 6-6v-19a6 6 0 0 0 -12 0v19a6 6 0 0 0 6 6z"/><path d="m271 471.985a6 6 0 0 0 6-6v-19a6 6 0 0 0 -12 0v19a6 6 0 0 0 6 6z"/><path d="m361 471.985a6 6 0 0 0 6-6v-19a6 6 0 0 0 -12 0v19a6 6 0 0 0 6 6z"/><path d="m331 471.985a6 6 0 0 0 6-6v-19a6 6 0 0 0 -12 0v19a6 6 0 0 0 6 6z"/><path d="m421 471.985a6 6 0 0 0 6-6v-19a6 6 0 0 0 -12 0v19a6 6 0 0 0 6 6z"/><path d="m391 471.985a6 6 0 0 0 6-6v-19a6 6 0 0 0 -12 0v19a6 6 0 0 0 6 6z"/></svg>